<svg xmlns="http://www.w3.org/2000/svg" viewBox="0 0 112 112">
    <defs>
      <linearGradient id="bg" x1="0" y1="0" x2="0.35" y2="1">
        <stop offset="0" stop-color="#0FB377"/>
        <stop offset="0.55" stop-color="#079060"/>
        <stop offset="1" stop-color="#02462F"/>
      </linearGradient>
      <radialGradient id="glow" cx="0.32" cy="0.26" r="0.85">
        <stop offset="0" stop-color="#FFFFFF" stop-opacity="0.16"/>
        <stop offset="0.5" stop-color="#FFFFFF" stop-opacity="0"/>
      </radialGradient>
      <filter id="ds" x="-25%" y="-25%" width="150%" height="155%">
        <feDropShadow dx="0" dy="2" stdDeviation="2.2" flood-color="#00150D" flood-opacity="0.32"/>
      </filter>
    </defs>
    <rect width="112" height="112" rx="16" fill="url(#bg)"/>
    <rect width="112" height="112" rx="16" fill="url(#glow)"/>
    <g transform="translate(22.4 22.4) scale(0.6)" filter="url(#ds)">
    <path d="M56 6 C32 6 13 25 13 48.5 C13 66 26 80 44 97 L52.5 104.6 C54.5 106.4 57.5 106.4 59.5 104.6 L68 97 C86 80 99 66 99 48.5 C99 25 80 6 56 6 Z" fill="#FFFFFF"/>
    <path d="M56 66 C54.9 66 53.8 65.6 53 64.9 C44.4 58 38.5 51.9 38.5 44.3 C38.5 38.2 43 34 48.2 34 C51.3 34 54.1 35.5 56 38 C57.9 35.5 60.7 34 63.8 34 C69 34 73.5 38.2 73.5 44.3 C73.5 51.9 67.6 58 59 64.9 C58.2 65.6 57.1 66 56 66 Z" fill="#0A7A52"/></g>
  </svg>
